<?xml version="1.0" encoding="utf-8"?>
<!-- Generator: Adobe Illustrator 24.1.2, SVG Export Plug-In . SVG Version: 6.00 Build 0)  -->
<svg version="1.1" id="Layer_1" xmlns="http://www.w3.org/2000/svg" xmlns:xlink="http://www.w3.org/1999/xlink" x="0px" y="0px"
	 viewBox="0 0 24 24" style="enable-background:new 0 0 24 24;" xml:space="preserve">
<style type="text/css">
	.st0{fill:#fb4137;}
</style>
<g>
	<path class="st0" d="M13.5,24c-1.1,0-2-0.9-2-2c0-0.9,0.6-1.7,1.5-1.9V15c-0.8-0.1-1.6-0.4-2.3-0.9l-7,7C3.9,21.3,4,21.6,4,22
		c0,1.1-0.9,2-2,2s-2-0.9-2-2s0.9-2,2-2c0.4,0,0.7,0.1,1,0.3l7-7c-0.6-0.8-1-1.8-1-2.8c0-0.4,0.1-0.9,0.2-1.3L3.5,6.8
		C3.2,7.2,2.6,7.5,2,7.5c-1.1,0-2-0.9-2-2s0.9-2,2-2s2,0.9,2,2c0,0.1,0,0.2,0,0.4l5.6,2.4C10.4,6.9,11.9,6,13.5,6c1,0,2,0.4,2.8,1
		l4-4C20.1,2.7,20,2.4,20,2c0-1.1,0.9-2,2-2s2,0.9,2,2s-0.9,2-2,2c-0.4,0-0.7-0.1-1-0.3l-4,4c0.6,0.8,1,1.8,1,2.8
		c0,0.6-0.1,1.2-0.4,1.8l2.7,1.1c0.4-0.6,1-0.9,1.7-0.9c1.1,0,2,0.9,2,2s-0.9,2-2,2s-2-0.9-2-2c0-0.1,0-0.1,0-0.2l-2.9-1.2
		c-0.7,1-1.9,1.7-3.1,1.8v5.1c0.9,0.2,1.5,1,1.5,1.9C15.5,23.1,14.6,24,13.5,24z M13.5,21c-0.6,0-1,0.4-1,1s0.4,1,1,1s1-0.4,1-1
		S14.1,21,13.5,21z M2,21c-0.6,0-1,0.4-1,1s0.4,1,1,1s1-0.4,1-1S2.6,21,2,21z M22,13.5c-0.6,0-1,0.4-1,1s0.4,1,1,1s1-0.4,1-1
		S22.6,13.5,22,13.5z M13.5,7C11.6,7,10,8.6,10,10.5s1.6,3.5,3.5,3.5s3.5-1.6,3.5-3.5S15.4,7,13.5,7z M2,4.5c-0.6,0-1,0.4-1,1
		s0.4,1,1,1s1-0.4,1-1S2.6,4.5,2,4.5z M22,1c-0.6,0-1,0.4-1,1s0.4,1,1,1s1-0.4,1-1S22.6,1,22,1z"/>
</g>
</svg>
