<?xml version="1.0" encoding="utf-8"?>
<!-- Generator: Adobe Illustrator 24.1.2, SVG Export Plug-In . SVG Version: 6.00 Build 0)  -->
<svg version="1.1" id="Layer_1" xmlns="http://www.w3.org/2000/svg" xmlns:xlink="http://www.w3.org/1999/xlink" x="0px" y="0px"
	 viewBox="0 0 24 24" style="enable-background:new 0 0 24 24;" xml:space="preserve">
<style type="text/css">
	.st0{fill:#fb4137;}
</style>
<g>
	<path class="st0" d="M12,24C5.4,24,0,18.6,0,12S5.4,0,12,0s12,5.4,12,12S18.6,24,12,24z M12,1C5.9,1,1,5.9,1,12s4.9,11,11,11
		s11-4.9,11-11S18.1,1,12,1z"/>
	<path class="st0" d="M5.5,19c-0.1,0-0.3-0.1-0.4-0.1S5,18.6,5,18.5s0.1-0.3,0.1-0.4L7.3,16c-0.9-1.1-1.7-3.3,1.4-6.3
		c1.2-1.1,2.5-2,4-2.7c0.1,0,0.1,0,0.2,0C13,7,13.1,7,13.2,7.1l1.3,1.3l0.6-2.1c0-0.2,0.2-0.3,0.3-0.3c0.9-0.3,1.8-0.5,2.7-0.7
		c0,0,0.1,0,0.1,0c0.1,0,0.3,0.1,0.4,0.1c0.1,0.1,0.2,0.3,0.1,0.4c0,0.2-1,6.1-4.4,9.5c-1.5,1.5-2.9,2.2-4.2,2.2
		c-0.8,0-1.5-0.3-2.2-0.8l-2.1,2.1C5.8,18.9,5.6,19,5.5,19z M8.7,16c0.5,0.3,0.9,0.5,1.5,0.5c1,0,2.2-0.6,3.5-1.9
		c2.5-2.5,3.6-6.5,4-8.2C17,6.5,16.5,6.7,16,6.8l-0.8,2.6c-0.1,0.2-0.2,0.3-0.4,0.3c0,0-0.1,0-0.1,0c-0.1,0-0.3-0.1-0.4-0.1
		l-1.6-1.6c-1.2,0.6-2.4,1.4-3.4,2.3c-1.3,1.3-2.6,3.2-1.4,4.9l3.1-3.1c0.1-0.1,0.2-0.1,0.4-0.1s0.3,0.1,0.4,0.1s0.1,0.2,0.1,0.4
		s-0.1,0.3-0.1,0.4L8.7,16z"/>
</g>
</svg>
