<?xml version="1.0" encoding="utf-8"?>
<!-- Generator: Adobe Illustrator 24.1.2, SVG Export Plug-In . SVG Version: 6.00 Build 0)  -->
<svg version="1.1" id="Layer_1" xmlns="http://www.w3.org/2000/svg" xmlns:xlink="http://www.w3.org/1999/xlink" x="0px" y="0px"
	 viewBox="0 0 24 24" style="enable-background:new 0 0 24 24;" xml:space="preserve">
<style type="text/css">
	.st0{fill:#fb4137;}
</style>
<g>
	<path class="st0" d="M12,5.5c-1.5,0-2.8-1.2-2.8-2.8S10.5,0,12,0s2.8,1.2,2.8,2.8S13.5,5.5,12,5.5z M12,1c-1,0-1.8,0.8-1.8,1.7
		S11,4.5,12,4.5s1.8-0.8,1.8-1.8S13,1,12,1z"/>
	<path class="st0" d="M7.5,10c-0.2,0-0.3-0.1-0.4-0.2S7,9.5,7,9.4c0.5-1.8,1.9-3.2,3.7-3.7c0.4-0.1,0.8-0.2,1.3-0.2
		c2.4,0,4.4,1.6,5,3.9c0,0.2,0,0.3-0.1,0.4c-0.1,0.1-0.2,0.2-0.4,0.2H7.5z M15.8,9c-0.6-1.5-2.1-2.5-3.8-2.5c-0.3,0-0.7,0-1,0.1
		C9.7,7,8.7,7.8,8.2,9H15.8z"/>
	<path class="st0" d="M5,19.5c-1.5,0-2.8-1.2-2.8-2.8S3.5,14,5,14s2.8,1.2,2.8,2.8S6.5,19.5,5,19.5z M5,15c-1,0-1.8,0.8-1.8,1.8
		S4,18.5,5,18.5s1.8-0.8,1.8-1.8S6,15,5,15z"/>
	<path class="st0" d="M0.5,24c-0.2,0-0.3-0.1-0.4-0.2C0,23.7,0,23.5,0,23.4c0.5-1.8,1.9-3.2,3.7-3.7c0.4-0.1,0.9-0.2,1.3-0.2
		c0.9,0,1.8,0.3,2.6,0.7c1.2,0.7,2,1.8,2.4,3.2c0,0.1,0,0.3-0.1,0.4C9.8,23.9,9.7,24,9.5,24H0.5z M8.8,23c-0.3-0.8-0.9-1.5-1.7-1.9
		c-0.6-0.4-1.4-0.6-2.1-0.6c-0.3,0-0.7,0-1,0.1C2.7,21,1.7,21.8,1.2,23H8.8z"/>
	<path class="st0" d="M19,19.5c-1.5,0-2.8-1.2-2.8-2.8S17.5,14,19,14s2.8,1.2,2.8,2.8S20.5,19.5,19,19.5z M19,15
		c-1,0-1.8,0.8-1.8,1.8s0.8,1.8,1.8,1.8s1.8-0.8,1.8-1.8S20,15,19,15z"/>
	<path class="st0" d="M14.5,24c-0.2,0-0.3-0.1-0.4-0.2C14,23.7,14,23.5,14,23.4c0.5-1.8,1.9-3.2,3.7-3.7c0.4-0.1,0.9-0.2,1.3-0.2
		c0.9,0,1.8,0.3,2.6,0.7c1.2,0.7,2,1.8,2.4,3.2c0,0.1,0,0.3-0.1,0.4c-0.1,0.1-0.2,0.2-0.4,0.2H14.5z M22.8,23
		c-0.3-0.8-0.9-1.5-1.7-1.9c-0.6-0.4-1.4-0.6-2.1-0.6c-0.3,0-0.7,0-1,0.1c-1.3,0.3-2.3,1.2-2.8,2.4L22.8,23L22.8,23z"/>
	<path class="st0" d="M12,20c-1.1,0-2.2-0.2-3.2-0.6c-0.3-0.1-0.4-0.4-0.3-0.7c0.1-0.2,0.3-0.3,0.5-0.3c0.1,0,0.1,0,0.2,0
		C10.1,18.8,11,19,12,19s1.9-0.2,2.8-0.5c0.1,0,0.1,0,0.2,0c0.2,0,0.4,0.1,0.5,0.3c0.1,0.3,0,0.5-0.3,0.7C14.2,19.8,13.1,20,12,20z"
		/>
	<path class="st0" d="M19.9,13C19.9,13,19.9,13,19.9,13c-0.2,0-0.3-0.1-0.4-0.2c-0.1-0.1-0.1-0.2-0.1-0.4c0.4-2.8-0.9-5.5-3.2-7.1
		C16.1,5.2,16,5.1,16,5c0-0.1,0-0.3,0.1-0.4c0.1-0.1,0.2-0.2,0.4-0.2c0.1,0,0.2,0,0.3,0.1c2.7,1.8,4.1,4.9,3.7,8.1
		C20.4,12.8,20.2,13,19.9,13z"/>
	<path class="st0" d="M4.1,13c-0.3,0-0.5-0.2-0.5-0.4c-0.4-3.2,1-6.3,3.7-8.1c0.1-0.1,0.2-0.1,0.3-0.1c0.2,0,0.3,0.1,0.4,0.2
		C8,4.7,8,4.8,8,5c0,0.1-0.1,0.2-0.2,0.3c-2.3,1.6-3.6,4.3-3.2,7.1c0,0.1,0,0.3-0.1,0.4S4.3,13,4.1,13C4.1,13,4.1,13,4.1,13z"/>
</g>
</svg>
