<?xml version="1.0" encoding="utf-8"?>
<!-- Generator: Adobe Illustrator 24.1.2, SVG Export Plug-In . SVG Version: 6.00 Build 0)  -->
<svg version="1.1" id="Layer_1" xmlns="http://www.w3.org/2000/svg" xmlns:xlink="http://www.w3.org/1999/xlink" x="0px" y="0px"
	 viewBox="0 0 24 24" style="enable-background:new 0 0 24 24;" xml:space="preserve">
<style type="text/css">
	.st0{fill:#fb4137;}
</style>
<g>
	<path class="st0" d="M17,24c-3.3,0-6-2.7-6-6s2.7-6,6-6s6,2.7,6,6S20.3,24,17,24z M17,13c-2.8,0-5,2.2-5,5s2.2,5,5,5s5-2.2,5-5
		S19.8,13,17,13z"/>
	<path class="st0" d="M1.5,14C0.7,14,0,13.3,0,12.5v-11C0,0.7,0.7,0,1.5,0h13C15.3,0,16,0.7,16,1.5V10c0,0.3-0.2,0.5-0.5,0.5
		S15,10.2,15,10V1.5C15,1.2,14.8,1,14.5,1h-13C1.2,1,1,1.2,1,1.5v11C1,12.8,1.2,13,1.5,13H11c0.3,0,0.5,0.2,0.5,0.5S11.3,14,11,14
		H1.5z"/>
	<path class="st0" d="M22.5,12.4c-0.2,0-0.5-0.1-0.7-0.2l-4-2C17.3,10,17,9.5,17,8.9V5.1c0-0.6,0.3-1.1,0.8-1.3l4-2
		c0.2-0.1,0.4-0.2,0.7-0.2c0.6,0,1.1,0.3,1.3,0.8C23.9,2.7,24,2.9,24,3.1v7.8c0,0.4-0.2,0.8-0.4,1.1C23.3,12.2,22.9,12.4,22.5,12.4
		L22.5,12.4z M22.5,2.6c-0.1,0-0.2,0-0.2,0.1l-4,2C18.1,4.8,18,4.9,18,5.1v3.8c0,0.2,0.1,0.4,0.3,0.4l4,2c0.1,0,0.1,0.1,0.2,0.1
		c0.1,0,0.3-0.1,0.4-0.1c0.1-0.1,0.1-0.2,0.1-0.4V3.1C23,3,23,3,22.9,2.9C22.9,2.7,22.7,2.6,22.5,2.6z"/>
	<path class="st0" d="M15.5,21c-0.1,0-0.2,0-0.3-0.1c-0.2-0.1-0.2-0.3-0.2-0.4v-5c0-0.2,0.1-0.3,0.2-0.4c0.1,0,0.2-0.1,0.3-0.1
		c0.1,0,0.2,0,0.2,0.1l4.5,2.5c0.2,0.1,0.3,0.3,0.3,0.4c0,0.2-0.1,0.4-0.3,0.4L15.7,21C15.7,21,15.6,21,15.5,21z M16,19.7l3-1.7
		l-3-1.7V19.7z"/>
</g>
</svg>
