<?xml version="1.0" encoding="utf-8"?>
<!-- Generator: Adobe Illustrator 24.1.2, SVG Export Plug-In . SVG Version: 6.00 Build 0)  -->
<svg version="1.1" id="Layer_1" xmlns="http://www.w3.org/2000/svg" xmlns:xlink="http://www.w3.org/1999/xlink" x="0px" y="0px"
	 viewBox="0 0 24 24" style="enable-background:new 0 0 24 24;" xml:space="preserve">
<style type="text/css">
	.st0{fill:#fb4137;}
</style>
<g>
	<path class="st0" d="M17,10c-0.6,0-1-0.4-1-1V1c0-0.6,0.4-1,1-1h3c0.5,0,0.9,0.2,1.2,0.5l2.3,2.3c0.1,0.1,0.1,0.2,0.2,0.2
		C23.9,3.1,24,3.3,24,3.5c0,0.1,0,0.1,0,0.2c0,0.1,0,0.2,0,0.3l0,5c0,0.6-0.4,1-1,1H17z M17,1v8h6V4h-3c-0.3,0-0.5-0.2-0.5-0.5V1H17
		z M22.3,3l-1.8-1.8V3H22.3z"/>
	<path class="st0" d="M8.5,11c-0.1,0-0.1,0-0.2,0c-0.1,0-0.1-0.1-0.2-0.1l-2-2C6.1,8.8,6,8.6,6,8.5s0.1-0.3,0.1-0.4S6.4,8,6.5,8
		s0.3,0.1,0.4,0.1L8,9.3V9c0-3,2.5-5.5,5.5-5.5C13.8,3.5,14,3.7,14,4s-0.2,0.5-0.5,0.5C11,4.5,9,6.5,9,9v0.3l1.1-1.1
		C10.2,8.1,10.4,8,10.5,8s0.3,0.1,0.4,0.1S11,8.4,11,8.5s-0.1,0.3-0.1,0.4l-2,2c0,0-0.1,0.1-0.2,0.1C8.6,11,8.6,11,8.5,11z"/>
	<path class="st0" d="M5,24c-0.3,0-0.5-0.2-0.5-0.5S4.7,23,5,23h2.5v-1H2c-1.1,0-2-0.9-2-2v-7c0-1.1,0.9-2,2-2h2
		c0.3,0,0.5,0.2,0.5,0.5S4.3,12,4,12H2c-0.6,0-1,0.4-1,1v6h14v-6c0-0.6-0.4-1-1-1h-1.5c-0.3,0-0.5-0.2-0.5-0.5s0.2-0.5,0.5-0.5H14
		c1.1,0,2,0.9,2,2v7c0,1.1-0.9,2-2,2H8.5v1H11c0.3,0,0.5,0.2,0.5,0.5S11.3,24,11,24H5z M1,20c0,0.6,0.4,1,1,1h12c0.6,0,1-0.4,1-1H1z
		"/>
</g>
</svg>
